<svg xmlns="http://www.w3.org/2000/svg" xmlns:xlink="http://www.w3.org/1999/xlink" zoomAndPan="magnify" preserveAspectRatio="xMidYMid meet" version="1.0" viewBox="98.27 140.6 133.68 59.85"><defs><g/><clipPath id="b6beb4e80f"><path d="M 98.285156 141.480469 L 126 141.480469 L 126 193.980469 L 98.285156 193.980469 Z M 98.285156 141.480469 " clip-rule="nonzero"/></clipPath></defs><g clip-path="url(#b6beb4e80f)"><path fill="#0052cc" d="M 98.273438 141.484375 L 125.960938 141.484375 L 125.960938 194.230469 L 114.859375 194.230469 L 114.472656 193.828125 L 113.761719 193.300781 L 113.128906 192.25 L 113.0625 191.210938 L 113.097656 190.105469 L 112.65625 188.375 L 112.117188 187.59375 L 111.753906 187.675781 L 111.195312 186.964844 L 110.515625 186.523438 L 110.582031 186.082031 L 109.9375 185.367188 L 109.410156 185.261719 L 109.351562 184.75 L 108.921875 184.464844 L 108.582031 183.964844 L 108.175781 183.195312 L 107.734375 182.605469 L 107.539062 182.234375 L 107.132812 182.597656 L 106.691406 182.300781 L 106.613281 181.941406 L 105.671875 180.648438 L 104.890625 180.636719 L 104.390625 180.195312 L 104.71875 179.640625 L 103.859375 178.992188 L 103.765625 179.457031 L 103.4375 179.652344 L 103.121094 179.4375 L 103.222656 179.039062 L 102.90625 178.664062 L 103.109375 178.097656 L 102.757812 177.644531 L 102.78125 177.40625 L 102.511719 177.035156 L 102.148438 177.285156 L 102.152344 176.75 L 101.703125 176.597656 L 101.730469 176.183594 L 101.40625 175.925781 L 101.066406 175.910156 L 100.71875 176.078125 L 100.191406 175.707031 L 100.089844 175.230469 L 99.433594 175.058594 L 99.082031 174.910156 L 98.75 174.394531 L 98.613281 174.027344 L 98.996094 173.820312 L 98.835938 173.554688 L 98.273438 173.046875 Z M 98.273438 141.484375 " fill-opacity="1" fill-rule="nonzero"/></g><g fill="#ff6b35" fill-opacity="1"><g transform="translate(129.01069, 193.117312)"><g><path d="M 22.734375 -19.53125 L 22.734375 0 L 16.21875 0 L 16.21875 -2.09375 C 15.5 -1.300781 14.632812 -0.695312 13.625 -0.28125 C 12.613281 0.125 11.539062 0.328125 10.40625 0.328125 C 7.882812 0.328125 5.875 -0.414062 4.375 -1.90625 C 2.875 -3.394531 2.125 -5.628906 2.125 -8.609375 L 2.125 -19.53125 L 8.96875 -19.53125 L 8.96875 -9.734375 C 8.96875 -8.265625 9.242188 -7.191406 9.796875 -6.515625 C 10.347656 -5.847656 11.15625 -5.515625 12.21875 -5.515625 C 13.300781 -5.515625 14.179688 -5.890625 14.859375 -6.640625 C 15.546875 -7.398438 15.890625 -8.5625 15.890625 -10.125 L 15.890625 -19.53125 Z M 22.734375 -19.53125 "/></g></g></g><g fill="#ff6b35" fill-opacity="1"><g transform="translate(150.415078, 193.117312)"><g><path d="M 23.203125 -19.53125 L 23.203125 -3.5625 C 23.203125 0.0625 22.21875 2.78125 20.25 4.59375 C 18.28125 6.40625 15.445312 7.3125 11.75 7.3125 C 9.820312 7.3125 8.015625 7.09375 6.328125 6.65625 C 4.648438 6.226562 3.222656 5.59375 2.046875 4.75 L 4.546875 -0.03125 C 5.335938 0.613281 6.335938 1.117188 7.546875 1.484375 C 8.765625 1.859375 9.960938 2.046875 11.140625 2.046875 C 12.941406 2.046875 14.257812 1.648438 15.09375 0.859375 C 15.9375 0.0664062 16.359375 -1.109375 16.359375 -2.671875 L 16.359375 -3.3125 C 15.035156 -1.78125 13.101562 -1.015625 10.5625 -1.015625 C 8.832031 -1.015625 7.234375 -1.398438 5.765625 -2.171875 C 4.296875 -2.953125 3.128906 -4.054688 2.265625 -5.484375 C 1.398438 -6.921875 0.96875 -8.578125 0.96875 -10.453125 C 0.96875 -12.296875 1.398438 -13.929688 2.265625 -15.359375 C 3.128906 -16.796875 4.296875 -17.90625 5.765625 -18.6875 C 7.234375 -19.46875 8.832031 -19.859375 10.5625 -19.859375 C 13.34375 -19.859375 15.382812 -18.957031 16.6875 -17.15625 L 16.6875 -19.53125 Z M 12.171875 -6.453125 C 13.398438 -6.453125 14.414062 -6.820312 15.21875 -7.5625 C 16.03125 -8.3125 16.4375 -9.273438 16.4375 -10.453125 C 16.4375 -11.628906 16.035156 -12.582031 15.234375 -13.3125 C 14.441406 -14.039062 13.421875 -14.40625 12.171875 -14.40625 C 10.929688 -14.40625 9.90625 -14.039062 9.09375 -13.3125 C 8.289062 -12.582031 7.890625 -11.628906 7.890625 -10.453125 C 7.890625 -9.273438 8.296875 -8.3125 9.109375 -7.5625 C 9.929688 -6.820312 10.953125 -6.453125 12.171875 -6.453125 Z M 12.171875 -6.453125 "/></g></g></g><g fill="#ff6b35" fill-opacity="1"><g transform="translate(172.287929, 193.117312)"><g><path d="M 12.171875 0.328125 C 10.015625 0.328125 8.082031 -0.101562 6.375 -0.96875 C 4.664062 -1.832031 3.335938 -3.03125 2.390625 -4.5625 C 1.441406 -6.101562 0.96875 -7.847656 0.96875 -9.796875 C 0.96875 -11.742188 1.441406 -13.476562 2.390625 -15 C 3.335938 -16.53125 4.664062 -17.722656 6.375 -18.578125 C 8.082031 -19.429688 10.015625 -19.859375 12.171875 -19.859375 C 14.390625 -19.859375 16.300781 -19.378906 17.90625 -18.421875 C 19.519531 -17.472656 20.660156 -16.160156 21.328125 -14.484375 L 16.03125 -11.78125 C 15.144531 -13.53125 13.847656 -14.40625 12.140625 -14.40625 C 10.921875 -14.40625 9.90625 -14 9.09375 -13.1875 C 8.289062 -12.375 7.890625 -11.242188 7.890625 -9.796875 C 7.890625 -8.335938 8.289062 -7.191406 9.09375 -6.359375 C 9.90625 -5.523438 10.921875 -5.109375 12.140625 -5.109375 C 13.847656 -5.109375 15.144531 -5.988281 16.03125 -7.75 L 21.328125 -5.046875 C 20.660156 -3.359375 19.519531 -2.039062 17.90625 -1.09375 C 16.300781 -0.144531 14.390625 0.328125 12.171875 0.328125 Z M 12.171875 0.328125 "/></g></g></g><g fill="#0052cc" fill-opacity="1"><g transform="translate(129.01069, 167.357156)"><g><path d="M 10.203125 -19.09375 C 12.671875 -19.09375 14.566406 -18.472656 15.890625 -17.234375 C 17.210938 -16.003906 17.875 -14.175781 17.875 -11.75 L 17.875 0 L 15.421875 0 L 15.421875 -2.953125 C 14.847656 -1.972656 14 -1.203125 12.875 -0.640625 C 11.757812 -0.0859375 10.4375 0.1875 8.90625 0.1875 C 6.789062 0.1875 5.109375 -0.316406 3.859375 -1.328125 C 2.609375 -2.335938 1.984375 -3.671875 1.984375 -5.328125 C 1.984375 -6.941406 2.566406 -8.238281 3.734375 -9.21875 C 4.898438 -10.207031 6.753906 -10.703125 9.296875 -10.703125 L 15.3125 -10.703125 L 15.3125 -11.859375 C 15.3125 -13.484375 14.851562 -14.722656 13.9375 -15.578125 C 13.03125 -16.429688 11.695312 -16.859375 9.9375 -16.859375 C 8.738281 -16.859375 7.585938 -16.660156 6.484375 -16.265625 C 5.378906 -15.867188 4.429688 -15.320312 3.640625 -14.625 L 2.484375 -16.53125 C 3.441406 -17.351562 4.59375 -17.984375 5.9375 -18.421875 C 7.289062 -18.867188 8.710938 -19.09375 10.203125 -19.09375 Z M 9.296875 -1.84375 C 10.734375 -1.84375 11.96875 -2.171875 13 -2.828125 C 14.039062 -3.484375 14.8125 -4.4375 15.3125 -5.6875 L 15.3125 -8.796875 L 9.375 -8.796875 C 6.125 -8.796875 4.5 -7.664062 4.5 -5.40625 C 4.5 -4.300781 4.921875 -3.429688 5.765625 -2.796875 C 6.609375 -2.160156 7.785156 -1.84375 9.296875 -1.84375 Z M 9.296875 -1.84375 "/></g></g></g><g fill="#0052cc" fill-opacity="1"><g transform="translate(146.739498, 167.357156)"><g><path d="M 3.5625 -26.734375 L 6.125 -26.734375 L 6.125 0 L 3.5625 0 Z M 3.5625 -26.734375 "/></g></g></g><g fill="#0052cc" fill-opacity="1"><g transform="translate(152.901031, 167.357156)"><g><path d="M 13.328125 -19.09375 C 15.109375 -19.09375 16.71875 -18.691406 18.15625 -17.890625 C 19.601562 -17.085938 20.734375 -15.953125 21.546875 -14.484375 C 22.359375 -13.015625 22.765625 -11.34375 22.765625 -9.46875 C 22.765625 -7.601562 22.359375 -5.9375 21.546875 -4.46875 C 20.734375 -3 19.601562 -1.851562 18.15625 -1.03125 C 16.71875 -0.21875 15.109375 0.1875 13.328125 0.1875 C 11.742188 0.1875 10.320312 -0.148438 9.0625 -0.828125 C 7.800781 -1.503906 6.785156 -2.476562 6.015625 -3.75 L 6.015625 0 L 3.5625 0 L 3.5625 -26.734375 L 6.125 -26.734375 L 6.125 -15.34375 C 6.914062 -16.570312 7.929688 -17.503906 9.171875 -18.140625 C 10.410156 -18.773438 11.796875 -19.09375 13.328125 -19.09375 Z M 13.15625 -2.09375 C 14.476562 -2.09375 15.675781 -2.394531 16.75 -3 C 17.832031 -3.613281 18.679688 -4.484375 19.296875 -5.609375 C 19.910156 -6.742188 20.21875 -8.03125 20.21875 -9.46875 C 20.21875 -10.914062 19.910156 -12.203125 19.296875 -13.328125 C 18.679688 -14.460938 17.832031 -15.332031 16.75 -15.9375 C 15.675781 -16.550781 14.476562 -16.859375 13.15625 -16.859375 C 11.8125 -16.859375 10.601562 -16.550781 9.53125 -15.9375 C 8.457031 -15.332031 7.613281 -14.460938 7 -13.328125 C 6.394531 -12.203125 6.09375 -10.914062 6.09375 -9.46875 C 6.09375 -8.03125 6.394531 -6.742188 7 -5.609375 C 7.613281 -4.484375 8.457031 -3.613281 9.53125 -3 C 10.601562 -2.394531 11.8125 -2.09375 13.15625 -2.09375 Z M 13.15625 -2.09375 "/></g></g></g><g fill="#0052cc" fill-opacity="1"><g transform="translate(173.800928, 167.357156)"><g><path d="M 20.0625 -8.6875 L 4.21875 -8.6875 C 4.363281 -6.71875 5.117188 -5.125 6.484375 -3.90625 C 7.859375 -2.695312 9.585938 -2.09375 11.671875 -2.09375 C 12.847656 -2.09375 13.925781 -2.300781 14.90625 -2.71875 C 15.894531 -3.132812 16.75 -3.753906 17.46875 -4.578125 L 18.921875 -2.921875 C 18.078125 -1.910156 17.023438 -1.140625 15.765625 -0.609375 C 14.503906 -0.078125 13.117188 0.1875 11.609375 0.1875 C 9.660156 0.1875 7.929688 -0.226562 6.421875 -1.0625 C 4.921875 -1.894531 3.75 -3.039062 2.90625 -4.5 C 2.070312 -5.96875 1.65625 -7.625 1.65625 -9.46875 C 1.65625 -11.320312 2.054688 -12.976562 2.859375 -14.4375 C 3.671875 -15.90625 4.773438 -17.046875 6.171875 -17.859375 C 7.578125 -18.679688 9.160156 -19.09375 10.921875 -19.09375 C 12.671875 -19.09375 14.242188 -18.679688 15.640625 -17.859375 C 17.035156 -17.046875 18.128906 -15.910156 18.921875 -14.453125 C 19.710938 -13.003906 20.109375 -11.34375 20.109375 -9.46875 Z M 10.921875 -16.90625 C 9.085938 -16.90625 7.550781 -16.320312 6.3125 -15.15625 C 5.082031 -13.988281 4.382812 -12.46875 4.21875 -10.59375 L 17.65625 -10.59375 C 17.488281 -12.46875 16.785156 -13.988281 15.546875 -15.15625 C 14.304688 -16.320312 12.765625 -16.90625 10.921875 -16.90625 Z M 10.921875 -16.90625 "/></g></g></g><g fill="#0052cc" fill-opacity="1"><g transform="translate(192.034226, 167.357156)"><g><path d="M 6.015625 -15.234375 C 6.617188 -16.515625 7.515625 -17.476562 8.703125 -18.125 C 9.890625 -18.769531 11.359375 -19.09375 13.109375 -19.09375 L 13.109375 -16.609375 L 12.5 -16.640625 C 10.507812 -16.640625 8.945312 -16.023438 7.8125 -14.796875 C 6.6875 -13.578125 6.125 -11.863281 6.125 -9.65625 L 6.125 0 L 3.5625 0 L 3.5625 -18.953125 L 6.015625 -18.953125 Z M 6.015625 -15.234375 "/></g></g></g><g fill="#0052cc" fill-opacity="1"><g transform="translate(202.952404, 167.357156)"><g><path d="M 13.546875 -1.15625 C 13.066406 -0.71875 12.472656 -0.382812 11.765625 -0.15625 C 11.054688 0.0703125 10.316406 0.1875 9.546875 0.1875 C 7.765625 0.1875 6.394531 -0.289062 5.4375 -1.25 C 4.476562 -2.21875 4 -3.578125 4 -5.328125 L 4 -16.796875 L 0.609375 -16.796875 L 0.609375 -18.953125 L 4 -18.953125 L 4 -23.09375 L 6.5625 -23.09375 L 6.5625 -18.953125 L 12.328125 -18.953125 L 12.328125 -16.796875 L 6.5625 -16.796875 L 6.5625 -5.484375 C 6.5625 -4.347656 6.84375 -3.484375 7.40625 -2.890625 C 7.96875 -2.304688 8.78125 -2.015625 9.84375 -2.015625 C 10.363281 -2.015625 10.867188 -2.097656 11.359375 -2.265625 C 11.859375 -2.429688 12.285156 -2.671875 12.640625 -2.984375 Z M 13.546875 -1.15625 "/></g></g></g><g fill="#0052cc" fill-opacity="1"><g transform="translate(214.050758, 167.357156)"><g><path d="M 10.203125 -19.09375 C 12.671875 -19.09375 14.566406 -18.472656 15.890625 -17.234375 C 17.210938 -16.003906 17.875 -14.175781 17.875 -11.75 L 17.875 0 L 15.421875 0 L 15.421875 -2.953125 C 14.847656 -1.972656 14 -1.203125 12.875 -0.640625 C 11.757812 -0.0859375 10.4375 0.1875 8.90625 0.1875 C 6.789062 0.1875 5.109375 -0.316406 3.859375 -1.328125 C 2.609375 -2.335938 1.984375 -3.671875 1.984375 -5.328125 C 1.984375 -6.941406 2.566406 -8.238281 3.734375 -9.21875 C 4.898438 -10.207031 6.753906 -10.703125 9.296875 -10.703125 L 15.3125 -10.703125 L 15.3125 -11.859375 C 15.3125 -13.484375 14.851562 -14.722656 13.9375 -15.578125 C 13.03125 -16.429688 11.695312 -16.859375 9.9375 -16.859375 C 8.738281 -16.859375 7.585938 -16.660156 6.484375 -16.265625 C 5.378906 -15.867188 4.429688 -15.320312 3.640625 -14.625 L 2.484375 -16.53125 C 3.441406 -17.351562 4.59375 -17.984375 5.9375 -18.421875 C 7.289062 -18.867188 8.710938 -19.09375 10.203125 -19.09375 Z M 9.296875 -1.84375 C 10.734375 -1.84375 11.96875 -2.171875 13 -2.828125 C 14.039062 -3.484375 14.8125 -4.4375 15.3125 -5.6875 L 15.3125 -8.796875 L 9.375 -8.796875 C 6.125 -8.796875 4.5 -7.664062 4.5 -5.40625 C 4.5 -4.300781 4.921875 -3.429688 5.765625 -2.796875 C 6.609375 -2.160156 7.785156 -1.84375 9.296875 -1.84375 Z M 9.296875 -1.84375 "/></g></g></g></svg>