<?xml version="1.0" encoding="UTF-8" standalone="no"?>
<!DOCTYPE svg PUBLIC "-//W3C//DTD SVG 1.1//EN" "http://www.w3.org/Graphics/SVG/1.1/DTD/svg11.dtd">
<svg width="100%" height="100%" viewBox="0 0 31717 3497" version="1.1" xmlns="http://www.w3.org/2000/svg" xmlns:xlink="http://www.w3.org/1999/xlink" xml:space="preserve" xmlns:serif="http://www.serif.com/" style="fill-rule:evenodd;clip-rule:evenodd;stroke-linejoin:round;stroke-miterlimit:2;">
    <g transform="matrix(5.555556,0,0,5.555556,0,0)">
        <g id="Page-1" serif:id="Page 1" transform="matrix(4.166667,0,0,4.166667,-1359.006075,-2319.841186)">
            <g id="Layer-1" serif:id="Layer 1">
                <g transform="matrix(1.270601,0,0,1.270601,-1474.249013,-804.71931)">
                    <path d="M1666.891,1189.232L1708.046,1082.843L1715.781,1082.843L1756.79,1189.232L1750.952,1189.232L1717.386,1100.939L1712.424,1087.659L1711.549,1087.659L1706.587,1100.939L1672.875,1189.232L1666.891,1189.232ZM1682.653,1160.191L1682.653,1154.937L1741.028,1154.937L1741.028,1160.191L1682.653,1160.191Z" style="fill-rule:nonzero;"/>
                    <path d="M1818.49,1190.4C1810.123,1190.4 1802.875,1188.868 1796.745,1185.803C1790.616,1182.738 1785.897,1178.287 1782.589,1172.449C1779.281,1166.612 1777.627,1159.558 1777.627,1151.288L1777.627,1082.843L1783.173,1082.843L1783.173,1150.704C1783.173,1158.391 1784.608,1164.788 1787.478,1169.895C1790.348,1175.003 1794.434,1178.798 1799.737,1181.279C1805.039,1183.76 1811.29,1185 1818.49,1185C1826.565,1185 1833.206,1183.589 1838.411,1180.768C1843.616,1177.946 1847.483,1173.957 1850.013,1168.801C1852.543,1163.644 1853.807,1157.612 1853.807,1150.704L1853.807,1082.843L1859.207,1082.843L1859.207,1151.288C1859.207,1159.072 1857.65,1165.906 1854.537,1171.793C1851.424,1177.679 1846.851,1182.252 1840.819,1185.511C1834.787,1188.77 1827.344,1190.4 1818.49,1190.4Z" style="fill-rule:nonzero;"/>
                    <path d="M1919.156,1189.232L1919.156,1086.637L1924.702,1086.637L1924.702,1189.232L1919.156,1189.232ZM1882.671,1088.097L1882.671,1082.843L1961.187,1082.843L1961.187,1088.097L1882.671,1088.097Z" style="fill-rule:nonzero;"/>
                    <path d="M2025.66,1190.4C2017.974,1190.4 2010.993,1189.111 2004.717,1186.533C1998.442,1183.954 1993.042,1180.257 1988.518,1175.441C1983.994,1170.625 1980.54,1164.885 1978.157,1158.22C1975.773,1151.556 1974.581,1144.186 1974.581,1136.111C1974.581,1127.938 1975.797,1120.519 1978.23,1113.855C1980.662,1107.19 1984.116,1101.474 1988.591,1096.707C1993.067,1091.94 1998.442,1088.267 2004.717,1085.689C2010.993,1083.11 2017.974,1081.821 2025.66,1081.821C2033.443,1081.821 2040.448,1083.11 2046.675,1085.689C2052.902,1088.267 2058.277,1091.964 2062.801,1096.78C2067.325,1101.596 2070.779,1107.312 2073.163,1113.928C2075.547,1120.544 2076.738,1127.938 2076.738,1136.111C2076.738,1144.283 2075.522,1151.702 2073.09,1158.366C2070.658,1165.031 2067.179,1170.747 2062.655,1175.514C2058.131,1180.281 2052.756,1183.954 2046.529,1186.533C2040.302,1189.111 2033.346,1190.4 2025.66,1190.4ZM2025.66,1185.146C2035,1185.146 2043.051,1183.079 2049.813,1178.944C2056.575,1174.809 2061.78,1169.068 2065.428,1161.723C2069.077,1154.377 2070.901,1145.84 2070.901,1136.111C2070.901,1128.716 2069.855,1122.027 2067.763,1116.044C2065.671,1110.06 2062.655,1104.904 2058.715,1100.574C2054.775,1096.245 2050.032,1092.913 2044.486,1090.578C2038.94,1088.243 2032.665,1087.075 2025.66,1087.075C2016.32,1087.075 2008.293,1089.118 2001.58,1093.204C1994.867,1097.291 1989.686,1103.007 1986.037,1110.352C1982.389,1117.698 1980.565,1126.284 1980.565,1136.111C1980.565,1143.408 1981.61,1150.072 1983.702,1156.104C1985.794,1162.136 1988.786,1167.317 1992.678,1171.647C1996.569,1175.976 2001.288,1179.309 2006.834,1181.644C2012.379,1183.979 2018.655,1185.146 2025.66,1185.146Z" style="fill-rule:nonzero;"/>
                    <path d="M2105.894,1189.232L2105.894,1082.843L2116.11,1082.843L2140.628,1144.867L2155.805,1183.103L2156.827,1183.103L2172.005,1144.867L2196.668,1082.843L2206.738,1082.843L2206.738,1189.232L2201.193,1189.232L2201.193,1127.938L2201.338,1087.367L2200.317,1087.367L2186.307,1123.414L2159.892,1189.232L2152.887,1189.232L2126.326,1123.414L2112.316,1087.367L2111.294,1087.367L2111.44,1127.938L2111.44,1189.232L2105.894,1189.232Z" style="fill-rule:nonzero;"/>
                    <path d="M2232.392,1189.232L2273.546,1082.843L2281.281,1082.843L2322.29,1189.232L2316.452,1189.232L2282.886,1100.939L2277.925,1087.659L2277.049,1087.659L2272.087,1100.939L2238.375,1189.232L2232.392,1189.232ZM2248.153,1160.191L2248.153,1154.937L2306.529,1154.937L2306.529,1160.191L2248.153,1160.191Z" style="fill-rule:nonzero;"/>
                    <path d="M2357.867,1189.232L2357.867,1086.637L2363.413,1086.637L2363.413,1189.232L2357.867,1189.232ZM2321.382,1088.097L2321.382,1082.843L2399.898,1082.843L2399.898,1088.097L2321.382,1088.097Z" style="fill-rule:nonzero;"/>
                    <path d="M2425.113,1189.232L2425.113,1082.843L2495.31,1082.843L2495.31,1088.097L2429.054,1088.097L2430.659,1086.491L2430.659,1185.438L2429.054,1183.833L2495.31,1183.833L2495.31,1189.232L2425.113,1189.232ZM2429.054,1136.986L2429.054,1132.024L2488.305,1132.024L2488.305,1136.986L2429.054,1136.986Z" style="fill-rule:nonzero;"/>
                </g>
                <g transform="matrix(0.781719,0,0,0.776883,596.371985,556.76184)">
                    <path d="M0,190.555C-6.531,190.555 -11.822,185.266 -11.822,178.739C-11.822,173.557 -13.649,168.803 -16.695,165.088C-17.604,163.977 -18.623,162.955 -19.74,162.049C-23.458,158.998 -28.209,157.174 -33.391,157.174C-39.916,157.174 -45.207,151.881 -45.207,145.358C-45.207,140.176 -47.035,135.42 -50.075,131.703C-50.989,130.59 -52.009,129.571 -53.121,128.662C-56.838,125.617 -61.588,123.791 -66.771,123.791C-73.3,123.791 -78.594,118.498 -78.594,111.967C-78.594,106.791 -80.42,102.039 -83.466,98.325C-84.375,97.211 -85.393,96.186 -86.512,95.284C-90.224,92.233 -94.974,90.407 -100.154,90.407C-106.68,90.407 -111.974,85.118 -111.974,78.588C-111.974,73.407 -113.8,68.655 -116.845,64.939C-117.753,63.826 -118.773,62.807 -119.885,61.899C-123.602,58.853 -128.359,57.027 -133.54,57.027C-140.066,57.027 -145.357,51.729 -145.357,45.207C-145.357,40.021 -147.186,35.271 -150.229,31.554C-151.139,30.442 -152.159,29.422 -153.27,28.512C-156.987,25.467 -161.742,23.643 -166.92,23.643C-172.103,23.643 -176.853,25.467 -180.568,28.512C-181.686,29.422 -182.707,30.442 -183.615,31.559C-186.659,35.276 -188.486,40.028 -188.486,45.207C-188.486,51.729 -193.78,57.027 -200.305,57.027C-205.486,57.027 -210.236,58.853 -213.955,61.899C-215.065,62.803 -216.092,63.824 -216.995,64.939C-220.045,68.655 -221.872,73.407 -221.872,78.588C-221.872,85.118 -227.16,90.407 -233.69,90.407C-238.871,90.407 -243.622,92.233 -247.338,95.284C-248.455,96.186 -249.472,97.211 -250.379,98.325C-253.426,102.039 -255.252,106.791 -255.252,111.967C-255.252,118.498 -260.549,123.791 -267.07,123.791C-272.252,123.791 -277.004,125.617 -280.719,128.662C-281.836,129.571 -282.855,130.59 -283.765,131.707C-286.81,135.424 -288.637,140.176 -288.637,145.358C-288.637,151.881 -293.93,157.174 -300.459,157.174C-305.637,157.174 -310.387,159.002 -314.104,162.049C-315.216,162.951 -316.236,163.971 -317.145,165.082C-320.194,168.799 -322.021,173.557 -322.021,178.739C-322.021,185.266 -327.309,190.555 -333.84,190.555C-340.369,190.555 -345.662,185.266 -345.662,178.739C-345.662,172.207 -340.369,166.92 -333.84,166.92C-328.662,166.92 -323.907,165.092 -320.19,162.049C-319.078,161.139 -318.059,160.119 -317.145,159.006C-314.1,155.291 -312.277,150.534 -312.277,145.358C-312.277,138.828 -306.984,133.534 -300.459,133.534C-295.277,133.534 -290.526,131.707 -286.81,128.662C-285.692,127.754 -284.674,126.733 -283.765,125.617C-280.719,121.901 -278.893,117.149 -278.893,111.967C-278.893,105.448 -273.6,100.149 -267.07,100.149C-261.893,100.149 -257.137,98.328 -253.42,95.284C-252.309,94.375 -251.289,93.355 -250.379,92.239C-247.334,88.521 -245.506,83.77 -245.506,78.588C-245.506,72.059 -240.22,66.77 -233.69,66.77C-228.503,66.77 -223.757,64.943 -220.039,61.899C-218.924,60.991 -217.903,59.965 -216.995,58.853C-213.95,55.135 -212.123,50.385 -212.123,45.207C-212.123,38.678 -206.83,33.385 -200.305,33.385C-195.129,33.385 -190.376,31.559 -186.659,28.512C-185.543,27.604 -184.524,26.586 -183.615,25.467C-180.568,21.752 -178.742,16.998 -178.742,11.819C-178.742,5.292 -173.449,0 -166.92,0C-160.396,0 -155.102,5.292 -155.102,11.819C-155.102,17.004 -153.275,21.756 -150.229,25.473C-149.32,26.586 -148.303,27.604 -147.188,28.512C-143.473,31.559 -138.717,33.385 -133.54,33.385C-127.01,33.385 -121.722,38.678 -121.722,45.207C-121.722,50.385 -119.895,55.135 -116.845,58.853C-115.941,59.965 -114.916,60.991 -113.805,61.899C-110.088,64.943 -105.336,66.77 -100.154,66.77C-93.63,66.77 -88.332,72.059 -88.332,78.588C-88.332,83.77 -86.512,88.521 -83.466,92.239C-82.556,93.355 -81.535,94.375 -80.42,95.284C-76.704,98.328 -71.952,100.149 -66.771,100.149C-60.24,100.149 -54.952,105.448 -54.952,111.967C-54.952,117.149 -53.125,121.905 -50.075,125.623C-49.168,126.733 -48.146,127.754 -47.035,128.662C-43.318,131.707 -38.566,133.534 -33.391,133.534C-26.859,133.534 -21.567,138.828 -21.567,145.358C-21.567,150.534 -19.74,155.291 -16.695,159.006C-15.787,160.119 -14.767,161.139 -13.649,162.049C-9.934,165.092 -5.183,166.92 0,166.92C6.52,166.92 11.817,172.207 11.817,178.739C11.817,185.266 6.52,190.555 0,190.555" style="fill-rule:nonzero;"/>
                </g>
                <g transform="matrix(0.781719,0,0,0.776883,361.497611,601.059916)">
                    <path d="M0,109.9C5.182,109.9 9.933,108.072 13.649,105.029C14.767,104.119 15.785,103.099 16.694,101.986C19.74,98.271 21.566,93.513 21.566,88.338C21.566,81.808 26.859,76.513 33.389,76.513C38.566,76.513 43.322,74.687 47.039,71.642C48.15,70.734 49.166,69.712 50.08,68.603C53.125,64.884 54.953,60.129 54.953,54.947C54.953,48.427 60.239,43.129 66.769,43.129C71.956,43.129 76.702,41.308 80.42,38.263C81.535,37.355 82.556,36.335 83.464,35.218C86.509,31.501 88.336,26.75 88.336,21.568C88.336,15.039 93.629,9.75 100.154,9.75C105.33,9.75 110.087,7.922 113.803,4.879C114.916,3.964 115.935,2.945 116.844,1.833C119.891,-1.885 121.717,-6.635 121.717,-11.813C121.717,-18.342 127.01,-23.635 133.539,-23.635C140.063,-23.635 145.357,-18.342 145.357,-11.813C145.357,-6.635 147.184,-1.885 150.229,1.833C151.139,2.945 152.156,3.964 153.271,4.879C156.986,7.922 161.742,9.75 166.919,9.75C173.449,9.75 178.737,15.039 178.737,21.568C178.737,26.75 180.564,31.501 183.614,35.218C184.518,36.335 185.543,37.355 186.654,38.263C190.371,41.308 195.123,43.129 200.305,43.129C206.829,43.129 212.127,48.427 212.127,54.947C212.127,60.129 213.947,64.88 216.993,68.597C217.903,69.712 218.924,70.734 220.039,71.642C223.755,74.687 228.507,76.513 233.687,76.513C240.219,76.513 245.507,81.808 245.507,88.338C245.507,93.513 247.334,98.271 250.384,101.986C251.291,103.099 252.312,104.113 253.424,105.029C257.141,108.072 261.893,109.9 267.068,109.9C273.6,109.9 278.892,115.187 278.892,121.718C278.892,128.246 273.6,133.535 267.068,133.535C260.543,133.535 255.252,128.246 255.252,121.718C255.252,116.537 253.424,111.779 250.384,108.062C249.47,106.951 248.45,105.931 247.338,105.029C243.621,101.978 238.865,100.154 233.687,100.154C227.159,100.154 221.865,94.861 221.865,88.338C221.865,83.156 220.039,78.404 216.993,74.687C216.084,73.57 215.066,72.55 213.947,71.642C210.235,68.597 205.485,66.771 200.305,66.771C193.779,66.771 188.485,61.478 188.485,54.947C188.485,49.771 186.659,45.019 183.614,41.304C182.706,40.191 181.686,39.171 180.574,38.263C176.857,35.212 172.1,33.386 166.919,33.386C160.393,33.386 155.102,28.098 155.102,21.568C155.102,16.382 153.273,11.63 150.229,7.914C149.32,6.803 148.307,5.787 147.193,4.879C143.477,1.833 138.717,0.006 133.539,0.006C128.356,0.006 123.602,1.833 119.885,4.879C118.773,5.787 117.752,6.806 116.844,7.919C113.8,11.634 111.973,16.386 111.973,21.568C111.973,28.098 106.679,33.386 100.154,33.386C94.973,33.386 90.223,35.212 86.504,38.263C85.394,39.166 84.367,40.191 83.464,41.304C80.414,45.019 78.587,49.771 78.587,54.947C78.587,61.478 73.299,66.771 66.769,66.771C61.588,66.771 56.837,68.597 53.121,71.642C52.008,72.55 50.987,73.57 50.08,74.683C47.033,78.4 45.207,83.156 45.207,88.338C45.207,94.861 39.91,100.154 33.389,100.154C28.207,100.154 23.455,101.978 19.74,105.029C18.623,105.935 17.604,106.957 16.694,108.068C13.649,111.783 11.822,116.537 11.822,121.718C11.822,128.246 6.529,133.535 0,133.535C-6.525,133.535 -11.818,128.246 -11.818,121.718C-11.818,115.187 -6.525,109.9 0,109.9" style="fill-rule:nonzero;"/>
                </g>
                <g transform="matrix(0.781719,0,0,0.776883,387.598177,626.99614)">
                    <path d="M0,76.515C5.178,76.515 9.935,74.687 13.65,71.644C14.762,70.728 15.781,69.714 16.691,68.601C19.736,64.886 21.564,60.128 21.564,54.953C21.564,48.423 26.852,43.128 33.381,43.128C38.567,43.128 43.313,41.302 47.031,38.257C48.143,37.349 49.162,36.327 50.076,35.218C53.12,31.499 54.949,26.744 54.949,21.562C54.949,15.042 60.24,9.744 66.766,9.744C71.942,9.744 76.698,7.923 80.414,4.878C81.527,3.964 82.546,2.945 83.455,1.833C86.502,-1.884 88.328,-6.635 88.328,-11.817C88.328,-18.346 93.621,-23.635 100.15,-23.635C106.675,-23.635 111.969,-18.346 111.969,-11.817C111.969,-6.631 113.795,-1.88 116.841,1.837C117.75,2.95 118.768,3.97 119.882,4.878C123.598,7.923 128.354,9.744 133.53,9.744C140.061,9.744 145.349,15.042 145.349,21.562C145.349,26.744 147.176,31.499 150.227,35.218C151.134,36.327 152.154,37.349 153.266,38.257C156.982,41.302 161.734,43.128 166.916,43.128C173.44,43.128 178.738,48.423 178.738,54.953C178.738,60.128 180.559,64.886 183.604,68.601C184.515,69.714 185.535,70.734 186.65,71.644C190.366,74.687 195.118,76.515 200.299,76.515C206.83,76.515 212.118,81.802 212.118,88.333C212.118,94.861 206.83,100.15 200.299,100.15C193.771,100.15 188.477,94.861 188.477,88.333C188.477,83.152 186.65,78.398 183.604,74.683C182.697,73.572 181.678,72.55 180.559,71.644C176.844,68.593 172.092,66.769 166.916,66.769C160.391,66.769 155.097,61.476 155.097,54.953C155.097,49.771 153.271,45.015 150.227,41.298C149.312,40.185 148.293,39.165 147.18,38.257C143.463,35.212 138.711,33.386 133.53,33.386C127.004,33.386 121.713,28.093 121.713,21.562C121.713,16.386 119.885,11.634 116.841,7.919C115.932,6.806 114.918,5.786 113.805,4.878C110.088,1.827 105.328,0.001 100.15,0.001C94.968,0.001 90.213,1.827 86.496,4.878C85.385,5.786 84.363,6.806 83.455,7.919C80.411,11.634 78.584,16.386 78.584,21.562C78.584,28.093 73.29,33.386 66.766,33.386C61.584,33.386 56.834,35.212 53.115,38.257C52.005,39.165 50.984,40.185 50.076,41.298C47.025,45.015 45.198,49.771 45.198,54.953C45.198,61.476 39.91,66.769 33.381,66.769C28.199,66.769 23.443,68.597 19.732,71.644C18.619,72.546 17.599,73.566 16.691,74.677C13.646,78.394 11.818,83.152 11.818,88.333C11.818,94.861 6.521,100.15 0,100.15C-6.529,100.15 -11.822,94.861 -11.822,88.333C-11.822,81.802 -6.529,76.515 0,76.515" style="fill-rule:nonzero;"/>
                </g>
                <g transform="matrix(0.781719,0,0,0.776883,413.691082,652.927703)">
                    <path d="M0,43.136C5.186,43.136 9.938,41.308 13.653,38.265C14.766,37.349 15.784,36.335 16.693,35.222C19.74,31.507 21.566,26.749 21.566,21.574C21.566,15.044 26.859,9.749 33.385,9.749C38.561,9.749 43.312,7.923 47.029,4.878C48.146,3.97 49.166,2.948 50.074,1.833C53.121,-1.884 54.945,-6.635 54.945,-11.817C54.945,-18.337 60.238,-23.635 66.768,-23.635C73.295,-23.635 78.586,-18.337 78.586,-11.817C78.586,-6.63 80.414,-1.88 83.459,1.839C84.367,2.948 85.388,3.97 86.499,4.878C90.217,7.923 94.972,9.749 100.15,9.749C106.679,9.749 111.967,15.044 111.967,21.574C111.967,26.749 113.795,31.507 116.844,35.222C117.754,36.335 118.771,37.349 119.885,38.265C123.6,41.308 128.353,43.136 133.533,43.136C140.06,43.136 145.357,48.423 145.357,54.954C145.357,61.482 140.06,66.771 133.533,66.771C127.01,66.771 121.717,61.482 121.717,54.954C121.717,49.773 119.889,45.015 116.844,41.298C115.936,40.187 114.915,39.167 113.804,38.265C110.086,35.218 105.335,33.39 100.15,33.39C93.625,33.39 88.33,28.097 88.33,21.574C88.33,16.386 86.504,11.636 83.459,7.919C82.55,6.806 81.531,5.786 80.42,4.878C76.702,1.833 71.945,0.007 66.768,0.007C61.588,0.007 56.836,1.833 53.121,4.878C52.002,5.786 50.983,6.806 50.074,7.923C47.029,11.64 45.201,16.392 45.201,21.574C45.201,28.097 39.909,33.39 33.385,33.39C28.204,33.39 23.452,35.218 19.734,38.265C18.623,39.167 17.604,40.187 16.693,41.298C13.645,45.015 11.818,49.773 11.818,54.954C11.818,61.482 6.529,66.771 0,66.771C-6.531,66.771 -11.818,61.482 -11.818,54.954C-11.818,48.423 -6.531,43.136 0,43.136" style="fill-rule:nonzero;"/>
                </g>
            </g>
        </g>
    </g>
</svg>
