<svg xmlns="http://www.w3.org/2000/svg" xmlns:xlink="http://www.w3.org/1999/xlink" zoomAndPan="magnify" preserveAspectRatio="xMidYMid meet" version="1.0" viewBox="26.08 16.22 133.55 34.43"><defs><g/></defs><g fill="#1c1b53" fill-opacity="1"><g transform="translate(25.799171, 31.744998)"><g><path d="M 8.375 -15.109375 C 7.257812 -15.109375 6.273438 -14.8125 5.421875 -14.21875 C 4.566406 -13.632812 3.898438 -12.804688 3.421875 -11.734375 C 2.941406 -10.660156 2.703125 -9.410156 2.703125 -7.984375 C 2.703125 -6.585938 2.9375 -5.363281 3.40625 -4.3125 C 3.875 -3.257812 4.53125 -2.441406 5.375 -1.859375 C 6.21875 -1.273438 7.195312 -0.984375 8.3125 -0.984375 C 9.519531 -0.984375 10.550781 -1.320312 11.40625 -2 C 12.269531 -2.675781 12.882812 -3.546875 13.25 -4.609375 L 13.46875 -4.5625 C 13.175781 -3.644531 12.75 -2.828125 12.1875 -2.109375 C 11.625 -1.390625 10.925781 -0.820312 10.09375 -0.40625 C 9.257812 0.0078125 8.28125 0.21875 7.15625 0.21875 C 5.84375 0.21875 4.671875 -0.0703125 3.640625 -0.65625 C 2.609375 -1.25 1.796875 -2.097656 1.203125 -3.203125 C 0.609375 -4.316406 0.3125 -5.65625 0.3125 -7.21875 C 0.3125 -8.882812 0.648438 -10.335938 1.328125 -11.578125 C 2.015625 -12.828125 2.960938 -13.789062 4.171875 -14.46875 C 5.378906 -15.15625 6.773438 -15.5 8.359375 -15.5 C 9.210938 -15.5 10.046875 -15.40625 10.859375 -15.21875 C 11.679688 -15.039062 12.316406 -14.84375 12.765625 -14.625 L 12.765625 -10.546875 L 12.5 -10.546875 C 12.1875 -12.117188 11.691406 -13.269531 11.015625 -14 C 10.335938 -14.738281 9.457031 -15.109375 8.375 -15.109375 Z M 8.375 -15.109375 "/></g></g></g><g fill="#1c1b53" fill-opacity="1"><g transform="translate(39.59706, 31.744998)"><g><path d="M 4.796875 -14.09375 L 4.796875 -9.25 L 12.078125 -9.25 L 12.078125 -14.09375 C 12.078125 -14.382812 11.984375 -14.59375 11.796875 -14.71875 C 11.617188 -14.84375 11.382812 -14.921875 11.09375 -14.953125 C 10.8125 -14.992188 10.519531 -15.015625 10.21875 -15.015625 L 10.21875 -15.28125 L 16.203125 -15.28125 L 16.203125 -15.015625 C 15.910156 -15.015625 15.617188 -14.992188 15.328125 -14.953125 C 15.046875 -14.921875 14.8125 -14.84375 14.625 -14.71875 C 14.445312 -14.59375 14.359375 -14.382812 14.359375 -14.09375 L 14.359375 -1.171875 C 14.359375 -0.898438 14.445312 -0.695312 14.625 -0.5625 C 14.8125 -0.4375 15.046875 -0.351562 15.328125 -0.3125 C 15.617188 -0.28125 15.910156 -0.265625 16.203125 -0.265625 L 16.203125 0 L 10.21875 0 L 10.21875 -0.265625 C 10.519531 -0.265625 10.8125 -0.28125 11.09375 -0.3125 C 11.382812 -0.351562 11.617188 -0.4375 11.796875 -0.5625 C 11.984375 -0.695312 12.078125 -0.898438 12.078125 -1.171875 L 12.078125 -8.890625 L 4.796875 -8.890625 L 4.796875 -1.171875 C 4.796875 -0.898438 4.882812 -0.695312 5.0625 -0.5625 C 5.25 -0.4375 5.484375 -0.351562 5.765625 -0.3125 C 6.054688 -0.28125 6.347656 -0.265625 6.640625 -0.265625 L 6.640625 0 L 0.65625 0 L 0.65625 -0.265625 C 0.957031 -0.265625 1.25 -0.28125 1.53125 -0.3125 C 1.820312 -0.351562 2.054688 -0.4375 2.234375 -0.5625 C 2.421875 -0.695312 2.515625 -0.898438 2.515625 -1.171875 L 2.515625 -14.09375 C 2.515625 -14.382812 2.421875 -14.59375 2.234375 -14.71875 C 2.054688 -14.84375 1.820312 -14.921875 1.53125 -14.953125 C 1.25 -14.992188 0.957031 -15.015625 0.65625 -15.015625 L 0.65625 -15.28125 L 6.640625 -15.28125 L 6.640625 -15.015625 C 6.347656 -15.015625 6.054688 -14.992188 5.765625 -14.953125 C 5.484375 -14.921875 5.25 -14.84375 5.0625 -14.71875 C 4.882812 -14.59375 4.796875 -14.382812 4.796875 -14.09375 Z M 4.796875 -14.09375 "/></g></g></g><g fill="#1c1b53" fill-opacity="1"><g transform="translate(56.451448, 31.744998)"><g><path d="M 4.796875 -14.09375 L 4.796875 -1.171875 C 4.796875 -0.898438 4.882812 -0.695312 5.0625 -0.5625 C 5.25 -0.4375 5.484375 -0.351562 5.765625 -0.3125 C 6.054688 -0.28125 6.347656 -0.265625 6.640625 -0.265625 L 6.640625 0 L 0.65625 0 L 0.65625 -0.265625 C 0.957031 -0.265625 1.25 -0.28125 1.53125 -0.3125 C 1.820312 -0.351562 2.054688 -0.4375 2.234375 -0.5625 C 2.421875 -0.695312 2.515625 -0.898438 2.515625 -1.171875 L 2.515625 -14.09375 C 2.515625 -14.382812 2.421875 -14.59375 2.234375 -14.71875 C 2.054688 -14.84375 1.820312 -14.921875 1.53125 -14.953125 C 1.25 -14.992188 0.957031 -15.015625 0.65625 -15.015625 L 0.65625 -15.28125 L 6.640625 -15.28125 L 6.640625 -15.015625 C 6.347656 -15.015625 6.054688 -14.992188 5.765625 -14.953125 C 5.484375 -14.921875 5.25 -14.84375 5.0625 -14.71875 C 4.882812 -14.59375 4.796875 -14.382812 4.796875 -14.09375 Z M 4.796875 -14.09375 "/></g></g></g><g fill="#1c1b53" fill-opacity="1"><g transform="translate(63.743371, 31.744998)"><g><path d="M 11.5 0 L 2.859375 -13.84375 L 2.859375 -1.171875 C 2.859375 -0.898438 2.945312 -0.695312 3.125 -0.5625 C 3.3125 -0.4375 3.550781 -0.351562 3.84375 -0.3125 C 4.132812 -0.28125 4.425781 -0.265625 4.71875 -0.265625 L 4.71875 0 L 0.65625 0 L 0.65625 -0.265625 C 0.957031 -0.265625 1.25 -0.28125 1.53125 -0.3125 C 1.820312 -0.351562 2.054688 -0.4375 2.234375 -0.5625 C 2.421875 -0.695312 2.515625 -0.898438 2.515625 -1.171875 L 2.515625 -14.09375 C 2.515625 -14.382812 2.421875 -14.59375 2.234375 -14.71875 C 2.054688 -14.84375 1.820312 -14.921875 1.53125 -14.953125 C 1.25 -14.992188 0.957031 -15.015625 0.65625 -15.015625 L 0.65625 -15.28125 L 4.6875 -15.28125 L 11.5 -3.96875 L 11.5 -14.09375 C 11.5 -14.382812 11.40625 -14.59375 11.21875 -14.71875 C 11.039062 -14.84375 10.8125 -14.921875 10.53125 -14.953125 C 10.25 -14.992188 9.953125 -15.015625 9.640625 -15.015625 L 9.640625 -15.28125 L 13.703125 -15.28125 L 13.703125 -15.015625 C 13.410156 -15.015625 13.125 -14.992188 12.84375 -14.953125 C 12.5625 -14.921875 12.328125 -14.84375 12.140625 -14.71875 C 11.960938 -14.59375 11.875 -14.382812 11.875 -14.09375 L 11.875 0 Z M 11.5 0 "/></g></g></g><g fill="#1c1b53" fill-opacity="1"><g transform="translate(78.108898, 31.744998)"><g><path d="M 7.296875 0.21875 C 5.066406 0.21875 3.34375 -0.445312 2.125 -1.78125 C 0.914062 -3.125 0.3125 -5.019531 0.3125 -7.46875 C 0.3125 -9.09375 0.597656 -10.507812 1.171875 -11.71875 C 1.742188 -12.925781 2.550781 -13.859375 3.59375 -14.515625 C 4.644531 -15.179688 5.878906 -15.515625 7.296875 -15.515625 C 8.703125 -15.515625 9.921875 -15.179688 10.953125 -14.515625 C 11.984375 -13.859375 12.78125 -12.925781 13.34375 -11.71875 C 13.914062 -10.507812 14.203125 -9.082031 14.203125 -7.4375 C 14.203125 -4.976562 13.601562 -3.085938 12.40625 -1.765625 C 11.21875 -0.441406 9.515625 0.21875 7.296875 0.21875 Z M 7.296875 -0.171875 C 8.722656 -0.171875 9.828125 -0.816406 10.609375 -2.109375 C 11.390625 -3.410156 11.78125 -5.203125 11.78125 -7.484375 C 11.78125 -9.023438 11.59375 -10.367188 11.21875 -11.515625 C 10.851562 -12.660156 10.335938 -13.546875 9.671875 -14.171875 C 9.003906 -14.804688 8.210938 -15.125 7.296875 -15.125 C 6.378906 -15.125 5.578125 -14.804688 4.890625 -14.171875 C 4.203125 -13.546875 3.671875 -12.660156 3.296875 -11.515625 C 2.921875 -10.367188 2.734375 -9.023438 2.734375 -7.484375 C 2.734375 -5.203125 3.132812 -3.410156 3.9375 -2.109375 C 4.75 -0.816406 5.867188 -0.171875 7.296875 -0.171875 Z M 7.296875 -0.171875 "/></g></g></g><g fill="#1c1b53" fill-opacity="1"><g transform="translate(92.627249, 31.744998)"><g><path d="M 7.296875 0.21875 C 5.066406 0.21875 3.34375 -0.445312 2.125 -1.78125 C 0.914062 -3.125 0.3125 -5.019531 0.3125 -7.46875 C 0.3125 -9.09375 0.597656 -10.507812 1.171875 -11.71875 C 1.742188 -12.925781 2.550781 -13.859375 3.59375 -14.515625 C 4.644531 -15.179688 5.878906 -15.515625 7.296875 -15.515625 C 8.703125 -15.515625 9.921875 -15.179688 10.953125 -14.515625 C 11.984375 -13.859375 12.78125 -12.925781 13.34375 -11.71875 C 13.914062 -10.507812 14.203125 -9.082031 14.203125 -7.4375 C 14.203125 -4.976562 13.601562 -3.085938 12.40625 -1.765625 C 11.21875 -0.441406 9.515625 0.21875 7.296875 0.21875 Z M 7.296875 -0.171875 C 8.722656 -0.171875 9.828125 -0.816406 10.609375 -2.109375 C 11.390625 -3.410156 11.78125 -5.203125 11.78125 -7.484375 C 11.78125 -9.023438 11.59375 -10.367188 11.21875 -11.515625 C 10.851562 -12.660156 10.335938 -13.546875 9.671875 -14.171875 C 9.003906 -14.804688 8.210938 -15.125 7.296875 -15.125 C 6.378906 -15.125 5.578125 -14.804688 4.890625 -14.171875 C 4.203125 -13.546875 3.671875 -12.660156 3.296875 -11.515625 C 2.921875 -10.367188 2.734375 -9.023438 2.734375 -7.484375 C 2.734375 -5.203125 3.132812 -3.410156 3.9375 -2.109375 C 4.75 -0.816406 5.867188 -0.171875 7.296875 -0.171875 Z M 7.296875 -0.171875 "/></g></g></g><g fill="#1c1b53" fill-opacity="1"><g transform="translate(107.145601, 31.744998)"><g><path d="M 4.796875 -14.09375 L 4.796875 -7.4375 L 11.328125 -13.671875 C 11.765625 -14.085938 11.863281 -14.410156 11.625 -14.640625 C 11.382812 -14.878906 10.957031 -15.003906 10.34375 -15.015625 L 10.34375 -15.28125 L 14.5 -15.28125 L 14.5 -15.046875 C 13.925781 -14.953125 13.445312 -14.796875 13.0625 -14.578125 C 12.675781 -14.359375 12.25 -14.023438 11.78125 -13.578125 L 7.21875 -9.25 L 13.359375 -1.25 C 13.617188 -0.882812 13.859375 -0.632812 14.078125 -0.5 C 14.296875 -0.375 14.5 -0.296875 14.6875 -0.265625 L 14.6875 0 L 11.703125 0 L 5.65625 -7.75 L 4.796875 -6.921875 L 4.796875 -1.171875 C 4.796875 -0.898438 4.882812 -0.695312 5.0625 -0.5625 C 5.25 -0.4375 5.484375 -0.351562 5.765625 -0.3125 C 6.054688 -0.28125 6.347656 -0.265625 6.640625 -0.265625 L 6.640625 0 L 0.65625 0 L 0.65625 -0.265625 C 0.957031 -0.265625 1.25 -0.28125 1.53125 -0.3125 C 1.820312 -0.351562 2.054688 -0.4375 2.234375 -0.5625 C 2.421875 -0.695312 2.515625 -0.898438 2.515625 -1.171875 L 2.515625 -14.09375 C 2.515625 -14.382812 2.421875 -14.59375 2.234375 -14.71875 C 2.054688 -14.84375 1.820312 -14.921875 1.53125 -14.953125 C 1.25 -14.992188 0.957031 -15.015625 0.65625 -15.015625 L 0.65625 -15.28125 L 6.640625 -15.28125 L 6.640625 -15.015625 C 6.347656 -15.015625 6.054688 -14.992188 5.765625 -14.953125 C 5.484375 -14.921875 5.25 -14.84375 5.0625 -14.71875 C 4.882812 -14.59375 4.796875 -14.382812 4.796875 -14.09375 Z M 4.796875 -14.09375 "/></g></g></g><g fill="#1c1b53" fill-opacity="1"><g transform="translate(121.947765, 31.744998)"><g/></g></g><g fill="#1c1b53" fill-opacity="1"><g transform="translate(125.637386, 31.744998)"><g><path d="M 6.359375 -12.59375 L 3.296875 -5.015625 L 9.34375 -5.015625 Z M 14.578125 -0.265625 L 14.578125 0 L 9.6875 0 L 9.6875 -0.265625 C 10.070312 -0.273438 10.382812 -0.390625 10.625 -0.609375 C 10.863281 -0.828125 10.878906 -1.1875 10.671875 -1.6875 L 9.5 -4.65625 L 3.140625 -4.65625 L 1.921875 -1.6875 C 1.773438 -1.332031 1.738281 -1.050781 1.8125 -0.84375 C 1.894531 -0.644531 2.039062 -0.503906 2.25 -0.421875 C 2.46875 -0.347656 2.691406 -0.296875 2.921875 -0.265625 L 2.921875 0 L 0.109375 0 L 0.109375 -0.234375 C 0.265625 -0.265625 0.472656 -0.359375 0.734375 -0.515625 C 1.003906 -0.679688 1.273438 -1.082031 1.546875 -1.71875 L 7.140625 -15.28125 L 7.53125 -15.28125 L 13.15625 -1.71875 C 13.4375 -1.09375 13.707031 -0.703125 13.96875 -0.546875 C 14.226562 -0.390625 14.429688 -0.296875 14.578125 -0.265625 Z M 14.578125 -0.265625 "/></g></g></g><g fill="#1c1b53" fill-opacity="1"><g transform="translate(140.330397, 31.744998)"><g><path d="M 4.796875 -14.09375 L 4.796875 -1.171875 C 4.796875 -0.898438 4.882812 -0.695312 5.0625 -0.5625 C 5.25 -0.4375 5.484375 -0.351562 5.765625 -0.3125 C 6.054688 -0.28125 6.347656 -0.265625 6.640625 -0.265625 L 6.640625 0 L 0.65625 0 L 0.65625 -0.265625 C 0.957031 -0.265625 1.25 -0.28125 1.53125 -0.3125 C 1.820312 -0.351562 2.054688 -0.4375 2.234375 -0.5625 C 2.421875 -0.695312 2.515625 -0.898438 2.515625 -1.171875 L 2.515625 -14.09375 C 2.515625 -14.382812 2.421875 -14.59375 2.234375 -14.71875 C 2.054688 -14.84375 1.820312 -14.921875 1.53125 -14.953125 C 1.25 -14.992188 0.957031 -15.015625 0.65625 -15.015625 L 0.65625 -15.28125 L 6.640625 -15.28125 L 6.640625 -15.015625 C 6.347656 -15.015625 6.054688 -14.992188 5.765625 -14.953125 C 5.484375 -14.921875 5.25 -14.84375 5.0625 -14.71875 C 4.882812 -14.59375 4.796875 -14.382812 4.796875 -14.09375 Z M 4.796875 -14.09375 "/></g></g></g><g fill="#1c1b53" fill-opacity="1"><g transform="translate(63.290273, 50.452303)"><g><path d="M 6.734375 -0.90625 C 6.117188 -1.46875 5.613281 -2.1875 5.21875 -3.0625 C 4.832031 -3.9375 4.59375 -4.859375 4.5 -5.828125 C 3.6875 -5.566406 3.066406 -5.1875 2.640625 -4.6875 C 2.222656 -4.1875 1.957031 -3.664062 1.84375 -3.125 C 1.6875 -2.320312 1.859375 -1.671875 2.359375 -1.171875 C 2.859375 -0.671875 3.617188 -0.421875 4.640625 -0.421875 C 5.023438 -0.421875 5.378906 -0.460938 5.703125 -0.546875 C 6.035156 -0.628906 6.378906 -0.75 6.734375 -0.90625 Z M 5.5 -6.5 C 6.082031 -6.71875 6.648438 -6.988281 7.203125 -7.3125 C 7.765625 -7.632812 8.242188 -8.007812 8.640625 -8.4375 C 9.035156 -8.875 9.285156 -9.363281 9.390625 -9.90625 C 9.503906 -10.445312 9.445312 -10.875 9.21875 -11.1875 C 8.988281 -11.507812 8.632812 -11.671875 8.15625 -11.671875 C 7.832031 -11.671875 7.492188 -11.578125 7.140625 -11.390625 C 6.796875 -11.203125 6.484375 -10.90625 6.203125 -10.5 C 5.921875 -10.09375 5.71875 -9.5625 5.59375 -8.90625 C 5.507812 -8.53125 5.460938 -8.140625 5.453125 -7.734375 C 5.441406 -7.335938 5.457031 -6.925781 5.5 -6.5 Z M 9.90625 -0.359375 C 10.332031 -0.359375 10.691406 -0.441406 10.984375 -0.609375 C 11.285156 -0.773438 11.546875 -1.03125 11.765625 -1.375 L 11.875 -1.3125 C 11.59375 -0.832031 11.242188 -0.460938 10.828125 -0.203125 C 10.421875 0.046875 9.929688 0.171875 9.359375 0.171875 C 8.921875 0.171875 8.5 0.0976562 8.09375 -0.046875 C 7.695312 -0.203125 7.328125 -0.421875 6.984375 -0.703125 C 5.972656 -0.171875 4.929688 0.09375 3.859375 0.09375 C 3.191406 0.09375 2.613281 -0.015625 2.125 -0.234375 C 1.632812 -0.453125 1.273438 -0.769531 1.046875 -1.1875 C 0.828125 -1.613281 0.78125 -2.140625 0.90625 -2.765625 C 1.0625 -3.523438 1.453125 -4.203125 2.078125 -4.796875 C 2.703125 -5.398438 3.492188 -5.835938 4.453125 -6.109375 C 4.390625 -6.878906 4.425781 -7.617188 4.5625 -8.328125 C 4.726562 -9.179688 5.003906 -9.867188 5.390625 -10.390625 C 5.785156 -10.921875 6.238281 -11.3125 6.75 -11.5625 C 7.257812 -11.820312 7.773438 -11.953125 8.296875 -11.953125 C 8.984375 -11.953125 9.515625 -11.765625 9.890625 -11.390625 C 10.273438 -11.015625 10.40625 -10.488281 10.28125 -9.8125 C 10.175781 -9.320312 9.960938 -8.882812 9.640625 -8.5 C 9.316406 -8.125 8.925781 -7.789062 8.46875 -7.5 C 8.007812 -7.21875 7.519531 -6.972656 7 -6.765625 C 6.476562 -6.566406 5.984375 -6.378906 5.515625 -6.203125 C 5.597656 -5.597656 5.726562 -4.988281 5.90625 -4.375 C 6.09375 -3.769531 6.328125 -3.203125 6.609375 -2.671875 C 6.898438 -2.148438 7.238281 -1.703125 7.625 -1.328125 C 7.945312 -1.503906 8.28125 -1.773438 8.625 -2.140625 C 8.96875 -2.503906 9.265625 -2.90625 9.515625 -3.34375 C 9.773438 -3.789062 9.960938 -4.21875 10.078125 -4.625 C 10.191406 -5.03125 10.179688 -5.359375 10.046875 -5.609375 C 9.921875 -5.867188 9.628906 -6 9.171875 -6 L 9.203125 -6.171875 L 12.375 -6.171875 L 12.328125 -6 C 11.910156 -5.957031 11.578125 -5.828125 11.328125 -5.609375 C 11.078125 -5.390625 10.863281 -5.117188 10.6875 -4.796875 C 10.507812 -4.472656 10.3125 -4.109375 10.09375 -3.703125 C 9.875 -3.296875 9.585938 -2.875 9.234375 -2.4375 C 8.890625 -2 8.421875 -1.570312 7.828125 -1.15625 C 8.117188 -0.914062 8.4375 -0.722656 8.78125 -0.578125 C 9.132812 -0.429688 9.507812 -0.359375 9.90625 -0.359375 Z M 9.90625 -0.359375 "/></g></g></g><g fill="#1c1b53" fill-opacity="1"><g transform="translate(75.255105, 50.452303)"><g/></g></g><g fill="#1c1b53" fill-opacity="1"><g transform="translate(78.099064, 50.452303)"><g><path d="M 5.328125 -11.515625 L 4.21875 -6.03125 L 7.40625 -6.03125 C 8.300781 -6.03125 9.046875 -6.269531 9.640625 -6.75 C 10.234375 -7.238281 10.617188 -7.910156 10.796875 -8.765625 C 10.984375 -9.648438 10.851562 -10.328125 10.40625 -10.796875 C 9.957031 -11.273438 9.234375 -11.515625 8.234375 -11.515625 Z M 7.296875 -5.75 L 4.171875 -5.75 L 3.203125 -0.859375 C 3.160156 -0.660156 3.203125 -0.507812 3.328125 -0.40625 C 3.460938 -0.3125 3.640625 -0.25 3.859375 -0.21875 C 4.085938 -0.195312 4.328125 -0.1875 4.578125 -0.1875 L 4.53125 0 L 0.515625 0 L 0.5625 -0.1875 C 0.800781 -0.1875 1.035156 -0.195312 1.265625 -0.21875 C 1.503906 -0.25 1.707031 -0.316406 1.875 -0.421875 C 2.050781 -0.523438 2.160156 -0.679688 2.203125 -0.890625 L 4.1875 -10.890625 C 4.226562 -11.109375 4.1875 -11.265625 4.0625 -11.359375 C 3.945312 -11.460938 3.773438 -11.523438 3.546875 -11.546875 C 3.328125 -11.578125 3.09375 -11.59375 2.84375 -11.59375 L 2.875 -11.78125 L 8.578125 -11.78125 C 9.878906 -11.78125 10.78125 -11.507812 11.28125 -10.96875 C 11.789062 -10.4375 11.953125 -9.703125 11.765625 -8.765625 C 11.585938 -7.796875 11.117188 -7.050781 10.359375 -6.53125 C 9.609375 -6.007812 8.585938 -5.75 7.296875 -5.75 Z M 7.296875 -5.75 "/></g></g></g><g fill="#1c1b53" fill-opacity="1"><g transform="translate(88.431568, 50.452303)"><g><path d="M 7.171875 -10.609375 L 3.296875 -3.96875 L 8.375 -3.96875 Z M 10.71875 -0.1875 L 10.6875 0 L 7.828125 0 L 7.859375 -0.1875 C 8.023438 -0.1875 8.191406 -0.210938 8.359375 -0.265625 C 8.535156 -0.328125 8.675781 -0.429688 8.78125 -0.578125 C 8.894531 -0.722656 8.929688 -0.921875 8.890625 -1.171875 L 8.40625 -3.703125 L 3.140625 -3.703125 L 1.65625 -1.171875 C 1.488281 -0.890625 1.429688 -0.679688 1.484375 -0.546875 C 1.535156 -0.421875 1.640625 -0.332031 1.796875 -0.28125 C 1.960938 -0.226562 2.125 -0.195312 2.28125 -0.1875 L 2.234375 0 L 0.09375 0 L 0.140625 -0.171875 C 0.203125 -0.179688 0.296875 -0.203125 0.421875 -0.234375 C 0.546875 -0.273438 0.6875 -0.363281 0.84375 -0.5 C 1.007812 -0.632812 1.1875 -0.859375 1.375 -1.171875 L 7.609375 -11.78125 L 7.890625 -11.78125 L 9.875 -1.171875 C 9.945312 -0.859375 10.035156 -0.632812 10.140625 -0.5 C 10.242188 -0.363281 10.351562 -0.28125 10.46875 -0.25 C 10.582031 -0.21875 10.664062 -0.195312 10.71875 -0.1875 Z M 10.71875 -0.1875 "/></g></g></g><g fill="#1c1b53" fill-opacity="1"><g transform="translate(99.201602, 50.452303)"><g><path d="M 5.328125 -11.515625 L 4.234375 -6.0625 L 7.40625 -6.0625 C 8.300781 -6.0625 9.046875 -6.300781 9.640625 -6.78125 C 10.242188 -7.257812 10.628906 -7.925781 10.796875 -8.78125 C 10.984375 -9.65625 10.851562 -10.328125 10.40625 -10.796875 C 9.957031 -11.273438 9.234375 -11.515625 8.234375 -11.515625 Z M 10.90625 0 L 9.09375 0 L 7.9375 -4.125 C 7.769531 -4.726562 7.441406 -5.160156 6.953125 -5.421875 C 6.460938 -5.679688 5.890625 -5.8125 5.234375 -5.8125 L 4.1875 -5.8125 L 3.203125 -0.859375 C 3.160156 -0.660156 3.203125 -0.507812 3.328125 -0.40625 C 3.460938 -0.3125 3.640625 -0.25 3.859375 -0.21875 C 4.085938 -0.195312 4.328125 -0.1875 4.578125 -0.1875 L 4.53125 0 L 0.515625 0 L 0.5625 -0.1875 C 0.800781 -0.1875 1.035156 -0.195312 1.265625 -0.21875 C 1.503906 -0.25 1.707031 -0.316406 1.875 -0.421875 C 2.050781 -0.523438 2.160156 -0.679688 2.203125 -0.890625 L 4.1875 -10.890625 C 4.226562 -11.109375 4.1875 -11.265625 4.0625 -11.359375 C 3.945312 -11.460938 3.773438 -11.523438 3.546875 -11.546875 C 3.328125 -11.578125 3.09375 -11.59375 2.84375 -11.59375 L 2.875 -11.78125 L 8.578125 -11.78125 C 9.910156 -11.78125 10.820312 -11.503906 11.3125 -10.953125 C 11.800781 -10.398438 11.957031 -9.675781 11.78125 -8.78125 C 11.601562 -7.851562 11.15625 -7.125 10.4375 -6.59375 C 9.726562 -6.070312 8.78125 -5.8125 7.59375 -5.8125 L 7.03125 -5.8125 C 7.488281 -5.71875 7.894531 -5.554688 8.25 -5.328125 C 8.601562 -5.097656 8.835938 -4.78125 8.953125 -4.375 L 9.90625 -1.078125 C 10.007812 -0.734375 10.140625 -0.5 10.296875 -0.375 C 10.453125 -0.257812 10.664062 -0.195312 10.9375 -0.1875 Z M 10.90625 0 "/></g></g></g><g fill="#1c1b53" fill-opacity="1"><g transform="translate(110.190401, 50.452303)"><g><path d="M 2.859375 -11.78125 L 10.703125 -11.78125 L 10.421875 -8.296875 L 10.203125 -8.25 C 10.210938 -8.851562 10.210938 -9.363281 10.203125 -9.78125 C 10.203125 -10.195312 10.140625 -10.53125 10.015625 -10.78125 C 9.898438 -11.039062 9.679688 -11.226562 9.359375 -11.34375 C 9.035156 -11.457031 8.554688 -11.515625 7.921875 -11.515625 L 7.1875 -11.515625 L 5.0625 -0.890625 C 5.03125 -0.679688 5.078125 -0.523438 5.203125 -0.421875 C 5.328125 -0.316406 5.5 -0.25 5.71875 -0.21875 C 5.945312 -0.195312 6.179688 -0.1875 6.421875 -0.1875 L 6.390625 0 L 2.453125 0 L 2.484375 -0.1875 C 2.734375 -0.1875 2.972656 -0.195312 3.203125 -0.21875 C 3.441406 -0.25 3.648438 -0.316406 3.828125 -0.421875 C 4.003906 -0.523438 4.109375 -0.679688 4.140625 -0.890625 L 6.265625 -11.515625 L 5.53125 -11.515625 C 4.90625 -11.515625 4.40625 -11.457031 4.03125 -11.34375 C 3.664062 -11.226562 3.367188 -11.039062 3.140625 -10.78125 C 2.921875 -10.53125 2.722656 -10.195312 2.546875 -9.78125 C 2.367188 -9.363281 2.164062 -8.851562 1.9375 -8.25 L 1.765625 -8.296875 Z M 2.859375 -11.78125 "/></g></g></g><g fill="#1c1b53" fill-opacity="1"><g transform="translate(119.025194, 50.452303)"><g><path d="M 8.40625 0 L 4.421875 -10.6875 L 2.453125 -0.890625 C 2.421875 -0.679688 2.46875 -0.523438 2.59375 -0.421875 C 2.726562 -0.316406 2.90625 -0.25 3.125 -0.21875 C 3.351562 -0.195312 3.59375 -0.1875 3.84375 -0.1875 L 3.796875 0 L 0.515625 0 L 0.5625 -0.1875 C 0.800781 -0.1875 1.035156 -0.195312 1.265625 -0.21875 C 1.503906 -0.25 1.707031 -0.316406 1.875 -0.421875 C 2.050781 -0.523438 2.160156 -0.679688 2.203125 -0.890625 L 4.1875 -10.890625 C 4.226562 -11.109375 4.1875 -11.265625 4.0625 -11.359375 C 3.945312 -11.460938 3.773438 -11.523438 3.546875 -11.546875 C 3.328125 -11.578125 3.09375 -11.59375 2.84375 -11.59375 L 2.875 -11.78125 L 5.109375 -11.78125 L 8.765625 -1.75 L 10.578125 -10.890625 C 10.628906 -11.109375 10.585938 -11.265625 10.453125 -11.359375 C 10.328125 -11.460938 10.148438 -11.523438 9.921875 -11.546875 C 9.703125 -11.578125 9.46875 -11.59375 9.21875 -11.59375 L 9.25 -11.78125 L 12.53125 -11.78125 L 12.5 -11.59375 C 12.132812 -11.59375 11.78125 -11.554688 11.4375 -11.484375 C 11.101562 -11.410156 10.90625 -11.210938 10.84375 -10.890625 L 8.6875 0 Z M 8.40625 0 "/></g></g></g><g fill="#1c1b53" fill-opacity="1"><g transform="translate(129.711091, 50.452303)"><g><path d="M 11.09375 -11.78125 L 10.78125 -8.296875 L 10.578125 -8.25 C 10.597656 -8.851562 10.601562 -9.363281 10.59375 -9.78125 C 10.582031 -10.195312 10.515625 -10.53125 10.390625 -10.78125 C 10.265625 -11.039062 10.03125 -11.226562 9.6875 -11.34375 C 9.351562 -11.457031 8.863281 -11.515625 8.21875 -11.515625 L 5.25 -11.515625 L 4.34375 -6.90625 L 7.40625 -6.90625 C 7.71875 -6.90625 7.957031 -6.984375 8.125 -7.140625 C 8.289062 -7.296875 8.414062 -7.492188 8.5 -7.734375 C 8.582031 -7.984375 8.65625 -8.238281 8.71875 -8.5 L 8.90625 -8.5 L 8.21875 -5.03125 L 8.03125 -5.03125 C 8.082031 -5.289062 8.113281 -5.539062 8.125 -5.78125 C 8.132812 -6.03125 8.085938 -6.234375 7.984375 -6.390625 C 7.878906 -6.546875 7.671875 -6.625 7.359375 -6.625 L 4.296875 -6.625 L 3.015625 -0.28125 L 5.875 -0.28125 C 6.507812 -0.28125 7.023438 -0.328125 7.421875 -0.421875 C 7.816406 -0.515625 8.132812 -0.675781 8.375 -0.90625 C 8.613281 -1.132812 8.828125 -1.460938 9.015625 -1.890625 C 9.203125 -2.316406 9.414062 -2.863281 9.65625 -3.53125 L 9.828125 -3.484375 L 8.734375 0 L 0.515625 0 L 0.5625 -0.1875 C 0.800781 -0.1875 1.035156 -0.195312 1.265625 -0.21875 C 1.503906 -0.25 1.707031 -0.316406 1.875 -0.421875 C 2.050781 -0.523438 2.160156 -0.679688 2.203125 -0.890625 L 4.1875 -10.890625 C 4.226562 -11.109375 4.1875 -11.265625 4.0625 -11.359375 C 3.945312 -11.460938 3.773438 -11.523438 3.546875 -11.546875 C 3.328125 -11.578125 3.09375 -11.59375 2.84375 -11.59375 L 2.875 -11.78125 Z M 11.09375 -11.78125 "/></g></g></g><g fill="#1c1b53" fill-opacity="1"><g transform="translate(138.932934, 50.452303)"><g><path d="M 5.328125 -11.515625 L 4.234375 -6.0625 L 7.40625 -6.0625 C 8.300781 -6.0625 9.046875 -6.300781 9.640625 -6.78125 C 10.242188 -7.257812 10.628906 -7.925781 10.796875 -8.78125 C 10.984375 -9.65625 10.851562 -10.328125 10.40625 -10.796875 C 9.957031 -11.273438 9.234375 -11.515625 8.234375 -11.515625 Z M 10.90625 0 L 9.09375 0 L 7.9375 -4.125 C 7.769531 -4.726562 7.441406 -5.160156 6.953125 -5.421875 C 6.460938 -5.679688 5.890625 -5.8125 5.234375 -5.8125 L 4.1875 -5.8125 L 3.203125 -0.859375 C 3.160156 -0.660156 3.203125 -0.507812 3.328125 -0.40625 C 3.460938 -0.3125 3.640625 -0.25 3.859375 -0.21875 C 4.085938 -0.195312 4.328125 -0.1875 4.578125 -0.1875 L 4.53125 0 L 0.515625 0 L 0.5625 -0.1875 C 0.800781 -0.1875 1.035156 -0.195312 1.265625 -0.21875 C 1.503906 -0.25 1.707031 -0.316406 1.875 -0.421875 C 2.050781 -0.523438 2.160156 -0.679688 2.203125 -0.890625 L 4.1875 -10.890625 C 4.226562 -11.109375 4.1875 -11.265625 4.0625 -11.359375 C 3.945312 -11.460938 3.773438 -11.523438 3.546875 -11.546875 C 3.328125 -11.578125 3.09375 -11.59375 2.84375 -11.59375 L 2.875 -11.78125 L 8.578125 -11.78125 C 9.910156 -11.78125 10.820312 -11.503906 11.3125 -10.953125 C 11.800781 -10.398438 11.957031 -9.675781 11.78125 -8.78125 C 11.601562 -7.851562 11.15625 -7.125 10.4375 -6.59375 C 9.726562 -6.070312 8.78125 -5.8125 7.59375 -5.8125 L 7.03125 -5.8125 C 7.488281 -5.71875 7.894531 -5.554688 8.25 -5.328125 C 8.601562 -5.097656 8.835938 -4.78125 8.953125 -4.375 L 9.90625 -1.078125 C 10.007812 -0.734375 10.140625 -0.5 10.296875 -0.375 C 10.453125 -0.257812 10.664062 -0.195312 10.9375 -0.1875 Z M 10.90625 0 "/></g></g></g><g fill="#1c1b53" fill-opacity="1"><g transform="translate(149.921733, 50.452303)"><g><path d="M 3.890625 -0.09375 C 4.503906 -0.09375 5.070312 -0.191406 5.59375 -0.390625 C 6.125 -0.585938 6.566406 -0.863281 6.921875 -1.21875 C 7.285156 -1.582031 7.515625 -1.992188 7.609375 -2.453125 C 7.691406 -2.921875 7.640625 -3.316406 7.453125 -3.640625 C 7.273438 -3.960938 7.003906 -4.234375 6.640625 -4.453125 C 6.273438 -4.679688 5.863281 -4.882812 5.40625 -5.0625 C 4.957031 -5.25 4.503906 -5.441406 4.046875 -5.640625 C 3.585938 -5.835938 3.179688 -6.070312 2.828125 -6.34375 C 2.484375 -6.613281 2.222656 -6.945312 2.046875 -7.34375 C 1.878906 -7.75 1.851562 -8.242188 1.96875 -8.828125 C 2.15625 -9.765625 2.640625 -10.519531 3.421875 -11.09375 C 4.210938 -11.664062 5.207031 -11.953125 6.40625 -11.953125 C 7.175781 -11.953125 7.832031 -11.859375 8.375 -11.671875 C 8.925781 -11.492188 9.363281 -11.347656 9.6875 -11.234375 L 9.140625 -8.453125 L 8.96875 -8.453125 C 8.96875 -9.648438 8.742188 -10.484375 8.296875 -10.953125 C 7.847656 -11.429688 7.191406 -11.671875 6.328125 -11.671875 C 5.359375 -11.671875 4.566406 -11.441406 3.953125 -10.984375 C 3.347656 -10.535156 2.976562 -9.960938 2.84375 -9.265625 C 2.726562 -8.734375 2.757812 -8.289062 2.9375 -7.9375 C 3.125 -7.582031 3.394531 -7.28125 3.75 -7.03125 C 4.113281 -6.78125 4.519531 -6.5625 4.96875 -6.375 C 5.425781 -6.195312 5.878906 -6.007812 6.328125 -5.8125 C 6.785156 -5.613281 7.195312 -5.390625 7.5625 -5.140625 C 7.925781 -4.890625 8.191406 -4.578125 8.359375 -4.203125 C 8.535156 -3.835938 8.570312 -3.378906 8.46875 -2.828125 C 8.28125 -1.941406 7.769531 -1.21875 6.9375 -0.65625 C 6.101562 -0.101562 5.03125 0.171875 3.71875 0.171875 C 3.238281 0.171875 2.765625 0.117188 2.296875 0.015625 C 1.828125 -0.078125 1.410156 -0.175781 1.046875 -0.28125 C 0.679688 -0.394531 0.398438 -0.488281 0.203125 -0.5625 L 0.75 -3.359375 L 0.9375 -3.359375 C 0.925781 -2.171875 1.164062 -1.328125 1.65625 -0.828125 C 2.15625 -0.335938 2.898438 -0.09375 3.890625 -0.09375 Z M 3.890625 -0.09375 "/></g></g></g></svg>