<svg version="1.1" xmlns="http://www.w3.org/2000/svg" xmlns:xlink="http://www.w3.org/1999/xlink" xml:space="preserve" xmlns:serif="http://www.serif.com/" style="fill-rule:evenodd;clip-rule:evenodd;stroke-linejoin:round;stroke-miterlimit:2;" viewBox="271.28 244.67 1917.3 358.9">
    <g transform="matrix(1.333333,0,0,1.333333,0,0)">
        <g transform="matrix(0.4969,0,0,0.4969,103.956712,-118.52291)">
            <rect x="688.573" y="666.636" width="81.75" height="421.8" style="fill:rgb(22,31,40);fill-rule:nonzero;"/>
            <path d="M1043.023,1088.436L1043.023,922.386C1043.023,905.086 1037.623,891.011 1026.823,880.161C1016.023,869.311 1002.21,863.886 985.385,863.886C973.935,863.886 963.804,866.336 954.991,871.236C946.179,876.136 939.298,883.011 934.348,891.861C929.398,900.711 926.923,910.886 926.923,922.386L896.173,906.486C896.173,883.986 901.098,864.211 910.948,847.161C920.798,830.111 934.407,816.761 951.776,807.111C969.145,797.461 988.82,792.636 1010.801,792.636C1032.182,792.636 1051.248,797.936 1067.998,808.536C1084.748,819.136 1097.923,832.986 1107.523,850.086C1117.123,867.186 1121.923,885.436 1121.923,904.836L1121.923,1088.436L1043.023,1088.436ZM848.023,1088.436L848.023,798.636L926.923,798.636L926.923,1088.436L848.023,1088.436Z" style="fill:rgb(22,31,40);fill-rule:nonzero;"/>
            <path d="M1380.223,1088.436L1380.223,922.386C1380.223,905.086 1374.823,891.011 1364.023,880.161C1353.223,869.311 1339.41,863.886 1322.585,863.886C1311.135,863.886 1301.004,866.336 1292.191,871.236C1283.379,876.136 1276.498,883.011 1271.548,891.861C1266.598,900.711 1264.123,910.886 1264.123,922.386L1233.373,906.486C1233.373,883.986 1238.298,864.211 1248.148,847.161C1257.998,830.111 1271.607,816.761 1288.976,807.111C1306.345,797.461 1326.02,792.636 1348.001,792.636C1369.382,792.636 1388.448,797.936 1405.198,808.536C1421.948,819.136 1435.123,832.986 1444.723,850.086C1454.323,867.186 1459.123,885.436 1459.123,904.836L1459.123,1088.436L1380.223,1088.436ZM1185.223,1088.436L1185.223,798.636L1264.123,798.636L1264.123,1088.436L1185.223,1088.436Z" style="fill:rgb(22,31,40);fill-rule:nonzero;"/>
            <path d="M1658.623,1094.736C1629.523,1094.736 1603.248,1088.036 1579.798,1074.636C1556.348,1061.236 1537.773,1043.036 1524.073,1020.036C1510.373,997.036 1503.523,971.336 1503.523,942.936C1503.523,914.536 1510.348,889.036 1523.998,866.436C1537.648,843.836 1556.198,825.836 1579.648,812.436C1603.098,799.036 1629.373,792.336 1658.473,792.336C1687.873,792.336 1714.273,798.961 1737.673,812.211C1761.073,825.461 1779.623,843.461 1793.323,866.211C1807.023,888.961 1813.873,914.536 1813.873,942.936C1813.873,971.336 1807.048,997.036 1793.398,1020.036C1779.748,1043.036 1761.223,1061.236 1737.823,1074.636C1714.423,1088.036 1688.023,1094.736 1658.623,1094.736ZM1658.473,1021.236C1673.273,1021.236 1686.323,1017.936 1697.623,1011.336C1708.923,1004.736 1717.698,995.511 1723.948,983.661C1730.198,971.811 1733.323,958.286 1733.323,943.086C1733.323,927.886 1730.098,914.511 1723.648,902.961C1717.198,891.411 1708.423,882.336 1697.323,875.736C1686.223,869.136 1673.273,865.836 1658.473,865.836C1644.073,865.836 1631.223,869.161 1619.923,875.811C1608.623,882.461 1599.823,891.561 1593.523,903.111C1587.223,914.661 1584.073,928.036 1584.073,943.236C1584.073,958.336 1587.223,971.811 1593.523,983.661C1599.823,995.511 1608.623,1004.736 1619.923,1011.336C1631.223,1017.936 1644.073,1021.236 1658.473,1021.236Z" style="fill:rgb(22,31,40);fill-rule:nonzero;"/>
            <path d="M1949.773,1088.436L1822.273,798.636L1908.373,798.636L2000.473,1037.436L1957.423,1037.436L2049.823,798.636L2133.523,798.636L2006.023,1088.436L1949.773,1088.436Z" style="fill:rgb(22,31,40);fill-rule:nonzero;"/>
            <path d="M2169.523,1088.436L2169.523,798.636L2248.423,798.636L2248.423,1088.436L2169.523,1088.436ZM2208.973,752.136C2196.273,752.136 2185.723,747.811 2177.323,739.161C2168.923,730.511 2164.723,719.836 2164.723,707.136C2164.723,694.436 2168.923,683.761 2177.323,675.111C2185.723,666.461 2196.273,662.136 2208.973,662.136C2222.073,662.136 2232.723,666.461 2240.923,675.111C2249.123,683.761 2253.223,694.436 2253.223,707.136C2253.223,719.836 2249.123,730.511 2240.923,739.161C2232.723,747.811 2222.073,752.136 2208.973,752.136Z" style="fill:rgb(22,31,40);fill-rule:nonzero;"/>
            <path d="M2418.073,1095.186C2401.473,1095.186 2385.323,1093.011 2369.623,1088.661C2353.923,1084.311 2339.448,1078.161 2326.198,1070.211C2312.948,1062.261 2301.523,1052.736 2291.923,1041.636L2338.873,994.236C2348.773,1005.336 2360.273,1013.761 2373.373,1019.511C2386.473,1025.261 2401.023,1028.136 2417.023,1028.136C2429.823,1028.136 2439.548,1026.261 2446.198,1022.511C2452.848,1018.761 2456.173,1013.336 2456.173,1006.236C2456.173,998.236 2452.648,992.086 2445.598,987.786C2438.548,983.486 2429.473,979.761 2418.373,976.611C2407.273,973.461 2395.573,970.061 2383.273,966.411C2370.973,962.761 2359.248,957.786 2348.098,951.486C2336.948,945.186 2327.873,936.511 2320.873,925.461C2313.873,914.411 2310.373,900.136 2310.373,882.636C2310.373,864.136 2314.923,848.111 2324.023,834.561C2333.123,821.011 2346.023,810.461 2362.723,802.911C2379.423,795.361 2399.223,791.586 2422.123,791.586C2446.023,791.586 2467.698,795.761 2487.148,804.111C2506.598,812.461 2522.623,824.986 2535.223,841.686L2488.123,889.086C2479.323,878.486 2469.373,870.761 2458.273,865.911C2447.173,861.061 2435.373,858.636 2422.873,858.636C2411.073,858.636 2402.098,860.411 2395.948,863.961C2389.798,867.511 2386.723,872.536 2386.723,879.036C2386.723,886.136 2390.223,891.686 2397.223,895.686C2404.223,899.686 2413.273,903.186 2424.373,906.186C2435.473,909.186 2447.148,912.611 2459.398,916.461C2471.648,920.311 2483.323,925.611 2494.423,932.361C2505.523,939.111 2514.573,948.086 2521.573,959.286C2528.573,970.486 2532.073,985.036 2532.073,1002.936C2532.073,1031.236 2521.823,1053.686 2501.323,1070.286C2480.823,1086.886 2453.073,1095.186 2418.073,1095.186Z" style="fill:rgb(22,31,40);fill-rule:nonzero;"/>
            <path d="M2627.023,1088.436L2627.023,678.336L2705.923,678.336L2705.923,1088.436L2627.023,1088.436ZM2559.523,867.636L2559.523,798.636L2773.423,798.636L2773.423,867.636L2559.523,867.636Z" style="fill:rgb(22,31,40);fill-rule:nonzero;"/>
            <path d="M2931.823,1094.436C2905.423,1094.436 2881.698,1087.836 2860.648,1074.636C2839.598,1061.436 2822.998,1043.486 2810.848,1020.786C2798.698,998.086 2792.623,972.486 2792.623,943.986C2792.623,915.186 2798.698,889.411 2810.848,866.661C2822.998,843.911 2839.598,825.886 2860.648,812.586C2881.698,799.286 2905.423,792.636 2931.823,792.636C2952.623,792.636 2971.223,796.886 2987.623,805.386C3004.023,813.886 3017.198,825.586 3027.148,840.486C3037.098,855.386 3042.423,872.336 3043.123,891.336L3043.123,995.736C3042.423,1014.736 3037.173,1031.686 3027.373,1046.586C3017.573,1061.486 3004.398,1073.186 2987.848,1081.686C2971.298,1090.186 2952.623,1094.436 2931.823,1094.436ZM2946.523,1021.836C2968.523,1021.836 2986.273,1014.511 2999.773,999.861C3013.273,985.211 3020.023,966.436 3020.023,943.536C3020.023,928.136 3016.973,914.561 3010.873,902.811C3004.773,891.061 2996.223,881.861 2985.223,875.211C2974.223,868.561 2961.373,865.236 2946.673,865.236C2932.273,865.236 2919.573,868.561 2908.573,875.211C2897.573,881.861 2888.898,891.086 2882.548,902.886C2876.198,914.686 2873.023,928.236 2873.023,943.536C2873.023,958.836 2876.173,972.386 2882.473,984.186C2888.773,995.986 2897.448,1005.211 2908.498,1011.861C2919.548,1018.511 2932.223,1021.836 2946.523,1021.836ZM3015.973,1088.436L3015.973,1010.586L3028.573,939.936L3015.973,869.886L3015.973,798.636L3094.123,798.636L3094.123,1088.436L3015.973,1088.436Z" style="fill:rgb(22,31,40);fill-rule:nonzero;"/>
        </g>
        <g transform="matrix(0.397652,0,0,0.397652,72.159899,57.09332)">
            <path d="M330.213,711.38L396.095,711.38L598.253,494.782L330.213,938.808L330.213,994.763L649.695,994.763L649.695,409.948L330.213,409.948L330.213,711.38ZM330.213,317.893L330.213,363.018L649.695,363.018L649.695,317.893L330.213,317.893Z" style="fill:rgb(78,110,86);fill-rule:nonzero;"/>
        </g>
    </g>
</svg>