<svg version="1.1" xmlns="http://www.w3.org/2000/svg" xmlns:xlink="http://www.w3.org/1999/xlink" xml:space="preserve" xmlns:serif="http://www.serif.com/" style="fill-rule:evenodd;clip-rule:evenodd;stroke-linejoin:round;stroke-miterlimit:2;" viewBox="251.13 124.03 1938.77 624.08">
    <g transform="matrix(1.333333,0,0,1.333333,0,0)">
        <g transform="matrix(0.4969,0,0,0.4969,103.956712,-118.52291)">
            <g transform="matrix(600,0,0,600,645.522701,1088.436086)">
                <rect x="0.072" y="-0.703" width="0.136" height="0.703" style="fill:rgb(22,31,40);fill-rule:nonzero;"/>
            </g>
            <g transform="matrix(600,0,0,600,813.522701,1088.436086)">
                <path d="M0.383,-0L0.383,-0.277C0.383,-0.306 0.373,-0.329 0.355,-0.347C0.337,-0.365 0.314,-0.374 0.286,-0.374C0.267,-0.374 0.25,-0.37 0.236,-0.362C0.221,-0.354 0.21,-0.342 0.201,-0.328C0.193,-0.313 0.189,-0.296 0.189,-0.277L0.138,-0.303C0.138,-0.341 0.146,-0.374 0.162,-0.402C0.179,-0.431 0.201,-0.453 0.23,-0.469C0.259,-0.485 0.292,-0.493 0.329,-0.493C0.364,-0.493 0.396,-0.484 0.424,-0.467C0.452,-0.449 0.474,-0.426 0.49,-0.397C0.506,-0.369 0.514,-0.338 0.514,-0.306L0.514,-0L0.383,-0ZM0.058,-0L0.058,-0.483L0.189,-0.483L0.189,-0L0.058,-0Z" style="fill:rgb(22,31,40);fill-rule:nonzero;"/>
            </g>
            <g transform="matrix(600,0,0,600,1150.722701,1088.436086)">
                <path d="M0.383,-0L0.383,-0.277C0.383,-0.306 0.373,-0.329 0.355,-0.347C0.337,-0.365 0.314,-0.374 0.286,-0.374C0.267,-0.374 0.25,-0.37 0.236,-0.362C0.221,-0.354 0.21,-0.342 0.201,-0.328C0.193,-0.313 0.189,-0.296 0.189,-0.277L0.138,-0.303C0.138,-0.341 0.146,-0.374 0.162,-0.402C0.179,-0.431 0.201,-0.453 0.23,-0.469C0.259,-0.485 0.292,-0.493 0.329,-0.493C0.364,-0.493 0.396,-0.484 0.424,-0.467C0.452,-0.449 0.474,-0.426 0.49,-0.397C0.506,-0.369 0.514,-0.338 0.514,-0.306L0.514,-0L0.383,-0ZM0.058,-0L0.058,-0.483L0.189,-0.483L0.189,-0L0.058,-0Z" style="fill:rgb(22,31,40);fill-rule:nonzero;"/>
            </g>
            <g transform="matrix(600,0,0,600,1487.922701,1088.436086)">
                <path d="M0.285,0.011C0.236,0.011 0.192,-0.001 0.153,-0.023C0.114,-0.045 0.083,-0.076 0.06,-0.114C0.037,-0.152 0.026,-0.195 0.026,-0.242C0.026,-0.29 0.037,-0.332 0.06,-0.37C0.083,-0.408 0.114,-0.438 0.153,-0.46C0.192,-0.482 0.236,-0.493 0.284,-0.493C0.333,-0.493 0.377,-0.482 0.416,-0.46C0.455,-0.438 0.486,-0.408 0.509,-0.37C0.532,-0.332 0.543,-0.29 0.543,-0.242C0.543,-0.195 0.532,-0.152 0.509,-0.114C0.486,-0.076 0.456,-0.045 0.416,-0.023C0.377,-0.001 0.333,0.011 0.285,0.011ZM0.284,-0.112C0.309,-0.112 0.331,-0.118 0.35,-0.129C0.368,-0.139 0.383,-0.155 0.393,-0.175C0.404,-0.194 0.409,-0.217 0.409,-0.242C0.409,-0.268 0.404,-0.29 0.393,-0.309C0.382,-0.328 0.367,-0.343 0.349,-0.354C0.331,-0.365 0.309,-0.371 0.284,-0.371C0.26,-0.371 0.239,-0.365 0.22,-0.354C0.201,-0.343 0.186,-0.328 0.176,-0.309C0.166,-0.29 0.16,-0.267 0.16,-0.242C0.16,-0.217 0.166,-0.194 0.176,-0.175C0.186,-0.155 0.201,-0.139 0.22,-0.129C0.239,-0.118 0.26,-0.112 0.284,-0.112Z" style="fill:rgb(22,31,40);fill-rule:nonzero;"/>
            </g>
            <g transform="matrix(600,0,0,600,1820.922701,1088.436086)">
                <path d="M0.215,-0L0.002,-0.483L0.146,-0.483L0.299,-0.085L0.228,-0.085L0.382,-0.483L0.521,-0.483L0.308,-0L0.215,-0Z" style="fill:rgb(22,31,40);fill-rule:nonzero;"/>
            </g>
            <g transform="matrix(600,0,0,600,2134.722701,1088.436086)">
                <path d="M0.058,-0L0.058,-0.483L0.19,-0.483L0.19,-0L0.058,-0ZM0.124,-0.56C0.103,-0.56 0.085,-0.568 0.071,-0.582C0.057,-0.597 0.05,-0.614 0.05,-0.636C0.05,-0.657 0.057,-0.674 0.071,-0.689C0.085,-0.703 0.103,-0.711 0.124,-0.711C0.146,-0.711 0.163,-0.703 0.177,-0.689C0.191,-0.674 0.198,-0.657 0.198,-0.636C0.198,-0.614 0.191,-0.597 0.177,-0.582C0.163,-0.568 0.146,-0.56 0.124,-0.56Z" style="fill:rgb(22,31,40);fill-rule:nonzero;"/>
            </g>
            <g transform="matrix(600,0,0,600,2283.522701,1088.436086)">
                <path d="M0.224,0.011C0.197,0.011 0.17,0.008 0.144,0C0.117,-0.007 0.093,-0.017 0.071,-0.03C0.049,-0.044 0.03,-0.059 0.014,-0.078L0.092,-0.157C0.109,-0.138 0.128,-0.124 0.15,-0.115C0.172,-0.105 0.196,-0.1 0.223,-0.101C0.244,-0.1 0.26,-0.104 0.271,-0.11C0.282,-0.116 0.288,-0.125 0.288,-0.137C0.288,-0.15 0.282,-0.161 0.27,-0.168C0.258,-0.175 0.243,-0.181 0.225,-0.186C0.206,-0.192 0.187,-0.197 0.166,-0.203C0.146,-0.209 0.126,-0.218 0.108,-0.228C0.089,-0.239 0.074,-0.253 0.062,-0.272C0.051,-0.29 0.045,-0.314 0.045,-0.343C0.045,-0.374 0.052,-0.401 0.068,-0.423C0.083,-0.446 0.104,-0.463 0.132,-0.476C0.16,-0.488 0.193,-0.495 0.231,-0.495C0.271,-0.495 0.307,-0.488 0.339,-0.474C0.372,-0.46 0.399,-0.439 0.419,-0.411L0.341,-0.332C0.326,-0.35 0.31,-0.363 0.291,-0.371C0.273,-0.379 0.253,-0.383 0.232,-0.383C0.213,-0.383 0.198,-0.38 0.187,-0.374C0.177,-0.368 0.172,-0.36 0.172,-0.349C0.172,-0.337 0.178,-0.328 0.19,-0.321C0.201,-0.315 0.216,-0.309 0.235,-0.304C0.253,-0.299 0.273,-0.293 0.293,-0.287C0.314,-0.28 0.333,-0.271 0.352,-0.26C0.37,-0.249 0.385,-0.234 0.397,-0.215C0.408,-0.197 0.414,-0.172 0.414,-0.143C0.414,-0.095 0.397,-0.058 0.363,-0.03C0.329,-0.003 0.283,0.011 0.224,0.011Z" style="fill:rgb(22,31,40);fill-rule:nonzero;"/>
            </g>
            <g transform="matrix(600,0,0,600,2549.922701,1088.436086)">
                <path d="M0.129,-0L0.129,-0.683L0.26,-0.683L0.26,-0L0.129,-0ZM0.016,-0.368L0.016,-0.483L0.372,-0.483L0.372,-0.368L0.016,-0.368Z" style="fill:rgb(22,31,40);fill-rule:nonzero;"/>
            </g>
            <g transform="matrix(600,0,0,600,2776.122701,1088.436086)">
                <path d="M0.26,0.01C0.216,0.01 0.176,-0.001 0.141,-0.023C0.106,-0.045 0.078,-0.075 0.058,-0.113C0.038,-0.151 0.028,-0.193 0.028,-0.241C0.028,-0.289 0.038,-0.332 0.058,-0.37C0.078,-0.408 0.106,-0.438 0.141,-0.46C0.176,-0.482 0.216,-0.493 0.26,-0.493C0.294,-0.493 0.325,-0.486 0.352,-0.472C0.38,-0.458 0.402,-0.438 0.418,-0.413C0.435,-0.388 0.444,-0.36 0.445,-0.329L0.445,-0.154C0.444,-0.123 0.435,-0.095 0.419,-0.07C0.402,-0.045 0.38,-0.025 0.353,-0.011C0.325,0.003 0.294,0.01 0.26,0.01ZM0.284,-0.111C0.321,-0.111 0.35,-0.123 0.373,-0.148C0.395,-0.172 0.407,-0.203 0.407,-0.241C0.407,-0.267 0.401,-0.29 0.391,-0.309C0.381,-0.329 0.367,-0.344 0.349,-0.355C0.33,-0.366 0.309,-0.372 0.284,-0.372C0.26,-0.372 0.239,-0.366 0.221,-0.355C0.202,-0.344 0.188,-0.329 0.177,-0.309C0.167,-0.29 0.162,-0.267 0.162,-0.241C0.162,-0.216 0.167,-0.193 0.177,-0.174C0.188,-0.154 0.202,-0.139 0.221,-0.128C0.239,-0.117 0.26,-0.111 0.284,-0.111ZM0.4,-0L0.4,-0.13L0.421,-0.247L0.4,-0.364L0.4,-0.483L0.53,-0.483L0.53,-0L0.4,-0Z" style="fill:rgb(22,31,40);fill-rule:nonzero;"/>
            </g>
            <g transform="matrix(600,0,0,600,3128.922701,1088.436086)">
            </g>
        </g>
        <g transform="matrix(0.397652,0,0,0.397652,72.159899,57.09332)">
            <g transform="matrix(902.492676,0,0,902.492676,649.69545,994.762807)">
            </g>
            <text x="294.113px" y="994.763px" style="font-family:'Biudazp-Regular', 'Biudazp';font-size:902.493px;fill:rgb(78,110,86);">i</text>
        </g>
    </g>
</svg>